<svg xmlns="http://www.w3.org/2000/svg" width="43" height="19" fill="none"><path fill="#C6AD8F" fill-rule="evenodd" d="M.997 0H16.1c1.138 0 2.06.911 2.06 2.036v.678h2.745v-.678c0-.375.308-.679.687-.679h20.593c.38 0 .687.304.687.679v5.428a.683.683 0 0 1-.687.679h-.686v.678c-.002 1.873-1.538 3.391-3.432 3.393h-1.373v3.393a.683.683 0 0 1-.687.679h-2.059v2.035a.683.683 0 0 1-.686.679h-2.746a.683.683 0 0 1-.687-.679v-2.035H27.77a.683.683 0 0 1-.686-.679v-3.393H25.71c-1.895-.002-3.43-1.52-3.433-3.393v-.678h-.686a.683.683 0 0 1-.687-.679v-.678H18.16v.678a2.048 2.048 0 0 1-2.06 2.036H.997a.683.683 0 0 1-.686-.679V.68C.31.304.618 0 .997 0zm.687 2.714H14.04V1.357H1.684v1.357zm30.89 14.929h-1.373v-1.357h1.373v1.357zm-4.119-2.714h6.865v-2.715h-6.865v2.715zm-2.745-4.072a2.048 2.048 0 0 1-2.06-2.036v-.678h16.475v.678a2.048 2.048 0 0 1-2.06 2.036H25.71zm-3.433-4.071h19.221V2.714h-19.22v4.072zM20.904 4.07V5.43H18.16V4.07h2.745zm-4.118 3.393V2.036a.683.683 0 0 0-.687-.679h-.686v6.786h.686c.38 0 .687-.304.687-.679zM14.04 4.071v4.072H1.684V4.07H14.04z" clip-rule="evenodd"/></svg>